<svg class="ionic" xmlns="http://www.w3.org/2000/svg" width="19.753" height="19.758" viewBox="0 0 19.753 19.758"><defs><style>.a{fill:#575757;}</style></defs><path class="a" d="M22.623,14.377a2.542,2.542,0,0,1,1.631-2.371,10.075,10.075,0,0,0-1.219-2.937A2.576,2.576,0,0,1,22,9.289a2.536,2.536,0,0,1-2.32-3.57A10.045,10.045,0,0,0,16.748,4.5a2.54,2.54,0,0,1-4.743,0A10.075,10.075,0,0,0,9.068,5.719a2.536,2.536,0,0,1-2.32,3.57,2.492,2.492,0,0,1-1.034-.221A10.3,10.3,0,0,0,4.5,12.01a2.541,2.541,0,0,1,.005,4.743A10.075,10.075,0,0,0,5.724,19.69a2.537,2.537,0,0,1,3.349,3.349,10.134,10.134,0,0,0,2.937,1.219,2.535,2.535,0,0,1,4.733,0,10.075,10.075,0,0,0,2.937-1.219,2.54,2.54,0,0,1,3.349-3.349,10.134,10.134,0,0,0,1.219-2.937A2.554,2.554,0,0,1,22.623,14.377Zm-8.2,4.11a4.115,4.115,0,1,1,4.115-4.115A4.114,4.114,0,0,1,14.423,18.487Z" transform="translate(-4.5 -4.5)"/></svg>